<svg id="Icons" xmlns="http://www.w3.org/2000/svg" viewBox="0 0 100 100"><defs><style>.cls-1{fill:#abd5d6;}.cls-2{fill:#7da4a5;}</style></defs><path class="cls-1" d="M22.505,50.85a7.786,7.786,0,0,1,2.524-.75A25.041,25.041,0,0,1,34.3,31.8l.05-.25a11.01,11.01,0,0,1,1.651-3.975A27.551,27.551,0,0,0,22.505,50.85ZM50.73,76.225a7.035,7.035,0,0,1-.725.025c-.3-.025-.575,0-.9-.025a24.948,24.948,0,0,1-8.4-1.75l.575,2.875a26.684,26.684,0,0,0,7.726,1.375c.3.025.65.025,1,.025.3,0,.625,0,.849-.025a25.756,25.756,0,0,0,5.2-.65l.55-2.7A25.441,25.441,0,0,1,50.73,76.225ZM59.755,25.55a11.165,11.165,0,0,1,2.824,4.1,25.086,25.086,0,0,1,12.426,21.2,8.426,8.426,0,0,1,2.474,1.775c.026-.45.026-.9.026-1.375A27.512,27.512,0,0,0,59.755,25.55Z"/><path class="cls-2" d="M83.18,74.525A8.774,8.774,0,0,0,74.6,67.5H71.257A6.256,6.256,0,0,0,77.5,61.251v-2.5a6.25,6.25,0,0,0-12.5,0v2.5A6.255,6.255,0,0,0,71.245,67.5h-3.34a8.729,8.729,0,0,0-8.551,6.925c0,.025-.024.075-.024.1l-.551,2.8L57.23,85H85.28ZM67.5,61.251v-2.5a3.75,3.75,0,0,1,7.5,0v2.5a3.75,3.75,0,0,1-7.5,0ZM60.28,82.5l1.275-6.3.225-1.175a6.086,6.086,0,0,1,.975-2.3,5.93,5.93,0,0,1,3.4-2.45A5.819,5.819,0,0,1,67.905,70h6.7a6.24,6.24,0,0,1,6.126,5.025l1.5,7.475Z"/><path class="cls-2" d="M38.53,76.275l-.35-1.75a7.652,7.652,0,0,0-.451-1.475,8.8,8.8,0,0,0-6.6-5.425h-.025a10.132,10.132,0,0,0-1.5-.125H26.257A6.256,6.256,0,0,0,32.5,61.251v-2.5a6.25,6.25,0,1,0-12.5,0v2.5A6.255,6.255,0,0,0,26.245,67.5h-3.34a8.753,8.753,0,0,0-8.575,7.025L12.23,85H40.28ZM22.5,61.251v-2.5a3.75,3.75,0,0,1,7.5,0v2.5a3.75,3.75,0,1,1-7.5,0ZM15.28,82.5l1.5-7.475A6.238,6.238,0,0,1,22.905,70h6.7a6.24,6.24,0,0,1,6.126,5.025l1.5,7.475Z"/><path class="cls-2" d="M60.68,32.025A8.8,8.8,0,0,0,52.1,25H48.757A6.256,6.256,0,0,0,55,18.751v-2.5a6.25,6.25,0,1,0-12.5,0v2.5A6.255,6.255,0,0,0,48.745,25h-3.34a8.826,8.826,0,0,0-7.625,4.45,8.111,8.111,0,0,0-.95,2.575L34.73,42.5H62.78ZM45,18.751v-2.5a3.75,3.75,0,0,1,7.5,0v2.5a3.75,3.75,0,0,1-7.5,0ZM37.78,40l1.5-7.475A6.238,6.238,0,0,1,45.405,27.5h6.7a6.24,6.24,0,0,1,6.126,5.025L59.73,40Z"/></svg>