<svg id="Icons" xmlns="http://www.w3.org/2000/svg" viewBox="0 0 100 100"><defs><style>.cls-1{fill:#7da4a5;}.cls-2{fill:#abd5d6;}</style></defs><path class="cls-1" d="M50,87.5A37.5,37.5,0,1,1,87.5,50,37.54,37.54,0,0,1,50,87.5ZM50,15A35,35,0,1,0,85,50,35,35,0,0,0,50,15Z"/><path class="cls-2" d="M64.44,67.5a52.13,52.13,0,0,0,3-15A49.79,49.79,0,0,0,65.33,35H78.8c-.45-.86-.94-1.69-1.46-2.5H64.49a48.57,48.57,0,0,0-8.36-14.4,32.06,32.06,0,0,0-3.83-.48A46.74,46.74,0,0,1,61.76,32.5H38.25a47,47,0,0,1,9.46-14.88,32.23,32.23,0,0,0-3.84.48,48.57,48.57,0,0,0-8.36,14.4H22.66c-.52.81-1,1.64-1.46,2.5H34.67a49.79,49.79,0,0,0-2.09,17.48,52.13,52.13,0,0,0,3,15H22.66c.55.86,1.15,1.7,1.78,2.5H36.55A47.43,47.43,0,0,0,43.8,81.89a32.4,32.4,0,0,0,3.85.49A44.53,44.53,0,0,1,39.33,70H60.67a44.76,44.76,0,0,1-8.31,12.38,32.5,32.5,0,0,0,3.84-.49A47.43,47.43,0,0,0,63.45,70H75.56a29.06,29.06,0,0,0,1.78-2.5Zm-2.73,0H38.29a48.62,48.62,0,0,1-3.22-15.15A46.7,46.7,0,0,1,37.37,35H62.64a46.89,46.89,0,0,1,2.29,17.35A48.62,48.62,0,0,1,61.71,67.5Z"/></svg>