<svg id="Icons" xmlns="http://www.w3.org/2000/svg" viewBox="0 0 100 100"><defs><style>.cls-1{fill:#7d91cb;}.cls-2{fill:#002979;}</style></defs><path class="cls-1" d="M49.25,66.75a17.5,17.5,0,1,1,17.5-17.5A17.52,17.52,0,0,1,49.25,66.75Zm0-32.5a15,15,0,1,0,15,15A15,15,0,0,0,49.25,34.25Z"/><path class="cls-2" d="M24.25,34.25a10,10,0,1,1,10-10A10,10,0,0,1,24.25,34.25Zm0-17.5a7.5,7.5,0,1,0,7.5,7.5A7.5,7.5,0,0,0,24.25,16.75Z"/><path class="cls-2" d="M24.25,86.75a10,10,0,1,1,10-10A10,10,0,0,1,24.25,86.75Zm0-17.5a7.5,7.5,0,1,0,7.5,7.5A7.5,7.5,0,0,0,24.25,69.25Z"/><path class="cls-2" d="M71.75,86.75a10,10,0,1,1,10-10A10,10,0,0,1,71.75,86.75Zm0-17.5a7.5,7.5,0,1,0,7.5,7.5A7.5,7.5,0,0,0,71.75,69.25Z"/><path class="cls-1" d="M76.75,34.25a10,10,0,1,1,10-10A10,10,0,0,1,76.75,34.25Zm0-17.5a7.5,7.5,0,1,0,7.5,7.5A7.5,7.5,0,0,0,76.75,16.75Z"/><rect class="cls-1" x="60.6" y="33.57" width="10.91" height="2.5" transform="translate(-5.27 56.9) rotate(-45)"/></svg>