<svg id="Icons" xmlns="http://www.w3.org/2000/svg" viewBox="0 0 100 100"><defs><style>.cls-1{fill:#7da4a5;}.cls-2{fill:#abd5d6;}</style></defs><rect class="cls-1" x="31.75" y="38.5" width="30" height="2.5"/><rect class="cls-1" x="31.75" y="48.5" width="30" height="2.5"/><rect class="cls-1" x="31.75" y="58.5" width="17.5" height="2.5"/><polygon class="cls-2" points="79.25 81 74.25 81 74.25 78.5 76.75 78.5 76.75 18.5 31.75 18.5 31.75 21 29.25 21 29.25 16 79.25 16 79.25 81"/><path class="cls-1" d="M65.5,86H28a6.25,6.25,0,0,1-6.25-6.25V23.5h50V79.75A6.25,6.25,0,0,1,65.5,86ZM24.25,26V79.75A3.75,3.75,0,0,0,28,83.5H65.5a3.75,3.75,0,0,0,3.75-3.75V26Z"/></svg>