<svg id="Icons" xmlns="http://www.w3.org/2000/svg" viewBox="0 0 100 100"><defs><style>.cls-1{fill:#7d91cb;}.cls-2{fill:#002979;}</style></defs><rect class="cls-1" x="74.8" y="55.25" width="5.2" height="2.5"/><path class="cls-2" d="M52.22,74a7,7,0,0,1-2.87-.61L37.1,67.81a14.55,14.55,0,0,1-4.71-3.41L26,58a.91.91,0,0,0-.65-.27H15v-20h9.36a6.26,6.26,0,0,0,3-.75l11.81-6.35A16,16,0,0,1,51.6,30l-.85,2.35a13.53,13.53,0,0,0-10.48.57L28.51,39.2a8.73,8.73,0,0,1-4.15,1H17.5v15h7.85a3.42,3.42,0,0,1,2.42,1l6.43,6.42a12,12,0,0,0,3.94,2.86L50.38,71.1a4.49,4.49,0,0,0,4.42-.42l13.09-9.29a3.83,3.83,0,0,0,1.65-3.3,3.87,3.87,0,0,0-1.84-3.21L51.52,44.81l3.08-1,14.42,9a6.41,6.41,0,0,1,.32,10.67l-13.1,9.29A7,7,0,0,1,52.22,74Z"/><path class="cls-1" d="M85,57.75H78.08v-2.5H82.5v-15H78a8.84,8.84,0,0,1-3.91-.92L61.19,32.87a13.43,13.43,0,0,0-10.79-.45L38,40.16a1.92,1.92,0,0,0-.65,2.53,1.79,1.79,0,0,0,2.16.86L52.64,39l.82,2.37-13.1,4.51a4.28,4.28,0,0,1-5.17-2A4.4,4.4,0,0,1,36.71,38L49.29,30.2a16,16,0,0,1,13,.43l12.93,6.46a6.26,6.26,0,0,0,2.79.66h7Z"/><rect class="cls-2" x="59.65" y="47.39" width="2.5" height="19.32" transform="translate(-18.81 81.73) rotate(-60.33)"/><rect class="cls-2" x="56.06" y="54.75" width="2.5" height="15.01" transform="translate(-24.84 82.55) rotate(-61.24)"/><rect class="cls-2" x="52.37" y="62.27" width="2.5" height="10.34" transform="translate(-30.76 84.83) rotate(-63.16)"/></svg>